<svg width="35" height="35" viewBox="0 0 35 35" fill="none" xmlns="http://www.w3.org/2000/svg">
<mask id="mask0_380_285" style="mask-type:alpha" maskUnits="userSpaceOnUse" x="0" y="0" width="35" height="35">
<rect x="0.216797" y="0.0285645" width="34" height="34" fill="#D9D9D9"/>
</mask>
<g mask="url(#mask0_380_285)">
<path d="M7.30013 29.7786C6.52096 29.7786 5.85395 29.5012 5.29909 28.9464C4.74423 28.3915 4.4668 27.7245 4.4668 26.9453V7.11198C4.4668 6.33281 4.74423 5.6658 5.29909 5.11094C5.85395 4.55608 6.52096 4.27865 7.30013 4.27865H13.2501C13.5571 3.42865 14.0706 2.74392 14.7908 2.22448C15.5109 1.70503 16.3196 1.44531 17.2168 1.44531C18.114 1.44531 18.9227 1.70503 19.6428 2.22448C20.363 2.74392 20.8765 3.42865 21.1835 4.27865H27.1335C27.9126 4.27865 28.5796 4.55608 29.1345 5.11094C29.6894 5.6658 29.9668 6.33281 29.9668 7.11198V26.9453C29.9668 27.7245 29.6894 28.3915 29.1345 28.9464C28.5796 29.5012 27.9126 29.7786 27.1335 29.7786H7.30013ZM11.5501 24.112H18.6335C19.0349 24.112 19.3713 23.9762 19.6428 23.7047C19.9144 23.4332 20.0501 23.0967 20.0501 22.6953C20.0501 22.2939 19.9144 21.9575 19.6428 21.6859C19.3713 21.4144 19.0349 21.2786 18.6335 21.2786H11.5501C11.1487 21.2786 10.8123 21.4144 10.5408 21.6859C10.2692 21.9575 10.1335 22.2939 10.1335 22.6953C10.1335 23.0967 10.2692 23.4332 10.5408 23.7047C10.8123 23.9762 11.1487 24.112 11.5501 24.112ZM11.5501 18.4453H22.8835C23.2849 18.4453 23.6213 18.3096 23.8928 18.038C24.1644 17.7665 24.3001 17.43 24.3001 17.0286C24.3001 16.6273 24.1644 16.2908 23.8928 16.0193C23.6213 15.7477 23.2849 15.612 22.8835 15.612H11.5501C11.1487 15.612 10.8123 15.7477 10.5408 16.0193C10.2692 16.2908 10.1335 16.6273 10.1335 17.0286C10.1335 17.43 10.2692 17.7665 10.5408 18.038C10.8123 18.3096 11.1487 18.4453 11.5501 18.4453ZM11.5501 12.7786H22.8835C23.2849 12.7786 23.6213 12.6429 23.8928 12.3714C24.1644 12.0998 24.3001 11.7634 24.3001 11.362C24.3001 10.9606 24.1644 10.6241 23.8928 10.3526C23.6213 10.0811 23.2849 9.94531 22.8835 9.94531H11.5501C11.1487 9.94531 10.8123 10.0811 10.5408 10.3526C10.2692 10.6241 10.1335 10.9606 10.1335 11.362C10.1335 11.7634 10.2692 12.0998 10.5408 12.3714C10.8123 12.6429 11.1487 12.7786 11.5501 12.7786ZM17.2168 6.04948C17.5237 6.04948 17.7776 5.94913 17.9783 5.74844C18.1789 5.54774 18.2793 5.29392 18.2793 4.98698C18.2793 4.68003 18.1789 4.42622 17.9783 4.22552C17.7776 4.02483 17.5237 3.92448 17.2168 3.92448C16.9099 3.92448 16.656 4.02483 16.4553 4.22552C16.2546 4.42622 16.1543 4.68003 16.1543 4.98698C16.1543 5.29392 16.2546 5.54774 16.4553 5.74844C16.656 5.94913 16.9099 6.04948 17.2168 6.04948Z" fill="#292DC2"/>
</g>
</svg>
