<svg width="81" height="74" viewBox="0 0 81 74" fill="none" xmlns="http://www.w3.org/2000/svg">
<rect x="0.5" width="80" height="74" rx="8" fill="#E8BB20" fill-opacity="0.1"/>
<mask id="mask0_380_639" style="mask-type:alpha" maskUnits="userSpaceOnUse" x="23" y="19" width="35" height="35">
<rect x="23.5684" y="19.6328" width="34" height="34" fill="#D9D9D9"/>
</mask>
<g mask="url(#mask0_380_639)">
<path d="M36.0704 36.6328L38.16 34.5432C38.4434 34.2599 38.585 33.9293 38.585 33.5516C38.585 33.1738 38.4434 32.8432 38.16 32.5599C37.8767 32.2766 37.5402 32.1349 37.1507 32.1349C36.7611 32.1349 36.4246 32.2766 36.1413 32.5599L33.06 35.6411C32.9184 35.7828 32.818 35.9363 32.759 36.1016C32.7 36.2668 32.6704 36.4439 32.6704 36.6328C32.6704 36.8217 32.7 36.9988 32.759 37.1641C32.818 37.3293 32.9184 37.4828 33.06 37.6245L36.1413 40.7057C36.4246 40.9891 36.7611 41.1307 37.1507 41.1307C37.5402 41.1307 37.8767 40.9891 38.16 40.7057C38.4434 40.4224 38.585 40.0918 38.585 39.7141C38.585 39.3363 38.4434 39.0057 38.16 38.7224L36.0704 36.6328ZM45.0663 36.6328L42.9767 38.7224C42.6934 39.0057 42.5517 39.3363 42.5517 39.7141C42.5517 40.0918 42.6934 40.4224 42.9767 40.7057C43.26 40.9891 43.5965 41.1307 43.9861 41.1307C44.3757 41.1307 44.7121 40.9891 44.9954 40.7057L48.0767 37.6245C48.2184 37.4828 48.3187 37.3293 48.3777 37.1641C48.4368 36.9988 48.4663 36.8217 48.4663 36.6328C48.4663 36.4439 48.4368 36.2668 48.3777 36.1016C48.3187 35.9363 48.2184 35.7828 48.0767 35.6411L44.9954 32.5599C44.8538 32.4182 44.6944 32.312 44.5173 32.2411C44.3402 32.1703 44.1632 32.1349 43.9861 32.1349C43.809 32.1349 43.6319 32.1703 43.4548 32.2411C43.2777 32.312 43.1184 32.4182 42.9767 32.5599C42.6934 32.8432 42.5517 33.1738 42.5517 33.5516C42.5517 33.9293 42.6934 34.2599 42.9767 34.5432L45.0663 36.6328ZM30.6517 49.3828C29.8725 49.3828 29.2055 49.1054 28.6507 48.5505C28.0958 47.9957 27.8184 47.3286 27.8184 46.5495V26.7161C27.8184 25.937 28.0958 25.27 28.6507 24.7151C29.2055 24.1602 29.8725 23.8828 30.6517 23.8828H50.485C51.2642 23.8828 51.9312 24.1602 52.4861 24.7151C53.0409 25.27 53.3184 25.937 53.3184 26.7161V46.5495C53.3184 47.3286 53.0409 47.9957 52.4861 48.5505C51.9312 49.1054 51.2642 49.3828 50.485 49.3828H30.6517Z" fill="#E8BB20"/>
</g>
</svg>
