<svg width="80" height="74" viewBox="0 0 80 74" fill="none" xmlns="http://www.w3.org/2000/svg">
<rect width="80" height="74" rx="8" fill="#F7864E" fill-opacity="0.1"/>
<mask id="mask0_380_625" style="mask-type:alpha" maskUnits="userSpaceOnUse" x="22" y="20" width="35" height="35">
<rect x="22.9814" y="20.3125" width="34" height="34" fill="#D9D9D9"/>
</mask>
<g mask="url(#mask0_380_625)">
<path d="M27.2313 50.0626C27.0424 50.0626 26.8594 50.0213 26.6823 49.9386C26.5052 49.856 26.3577 49.7556 26.2396 49.6376C25.9563 49.3779 25.8146 49.0532 25.8146 48.6636C25.8146 48.274 25.9445 47.9376 26.2042 47.6542C26.6528 47.182 27.19 46.8987 27.8157 46.8042C28.4414 46.7098 29.0729 46.7216 29.7104 46.8397C29.8993 46.8869 30.0764 46.9341 30.2417 46.9813C30.407 47.0286 30.5486 46.9931 30.6667 46.8751C30.8084 46.7334 30.8615 46.5563 30.8261 46.3438C30.7907 46.1313 30.7493 45.9306 30.7021 45.7417C30.6077 45.1042 30.5959 44.4727 30.6667 43.847C30.7375 43.2213 30.9973 42.6723 31.4459 42.2001C31.8945 41.7279 32.4316 41.4445 33.0573 41.3501C33.683 41.2556 34.3146 41.2674 34.9521 41.3855C35.141 41.4327 35.324 41.4799 35.5011 41.5272C35.6782 41.5744 35.8257 41.539 35.9438 41.4209C36.0855 41.2792 36.1327 41.1022 36.0854 40.8897C36.0382 40.6772 35.991 40.4765 35.9438 40.2876C35.8493 39.6501 35.8375 39.0185 35.9084 38.3928C35.9792 37.7671 36.2389 37.2181 36.6875 36.7459C37.1361 36.2737 37.6733 35.9904 38.299 35.8959C38.9247 35.8015 39.5563 35.8133 40.1938 35.9313C40.3827 35.9786 40.5657 36.0258 40.7427 36.073C40.9198 36.1202 41.0674 36.0848 41.1854 35.9667C41.3271 35.8251 41.3743 35.648 41.3271 35.4355C41.2799 35.223 41.2327 35.0223 41.1854 34.8334C41.091 34.1959 41.0851 33.5643 41.1677 32.9386C41.2504 32.3129 41.516 31.764 41.9646 31.2917C42.4132 30.8195 42.9504 30.5362 43.5761 30.4417C44.2018 30.3473 44.8334 30.3591 45.4709 30.4772C45.6598 30.5244 45.8427 30.5716 46.0198 30.6188C46.1969 30.6661 46.3445 30.6306 46.4625 30.5126C46.6042 30.3709 46.6514 30.1938 46.6042 29.9813C46.557 29.7688 46.5098 29.5681 46.4625 29.3792C46.3681 28.7417 46.3622 28.1102 46.4448 27.4845C46.5275 26.8588 46.7931 26.3098 47.2417 25.8376C47.6903 25.3654 48.2275 25.082 48.8532 24.9876C49.4789 24.8931 50.1104 24.9049 50.7479 25.023C50.9368 25.0702 51.1198 25.1115 51.2969 25.147C51.474 25.1824 51.6216 25.1411 51.7396 25.023C51.9993 24.7397 52.324 24.598 52.7136 24.598C53.1032 24.598 53.4396 24.7279 53.7229 24.9876C54.0063 25.2473 54.1479 25.572 54.1479 25.9615C54.1479 26.3511 54.0181 26.6876 53.7584 26.9709C53.3098 27.4431 52.7726 27.7324 52.1469 27.8386C51.5212 27.9449 50.8896 27.939 50.2521 27.8209C50.0632 27.7737 49.8802 27.7265 49.7032 27.6792C49.5261 27.632 49.3785 27.6674 49.2605 27.7855C49.1188 27.9272 49.0716 28.1042 49.1188 28.3167C49.166 28.5292 49.2132 28.7299 49.2605 28.9188C49.3549 29.5563 49.3608 30.1879 49.2782 30.8136C49.1955 31.4393 48.9299 31.9883 48.4813 32.4605C48.0327 32.9327 47.4955 33.2161 46.8698 33.3105C46.2441 33.4049 45.6125 33.3931 44.975 33.2751C44.7861 33.2279 44.6091 33.1806 44.4438 33.1334C44.2785 33.0862 44.1368 33.1216 44.0188 33.2397C43.8771 33.3813 43.824 33.5584 43.8594 33.7709C43.8948 33.9834 43.9361 34.1841 43.9834 34.373C44.0778 35.0105 44.0896 35.6421 44.0188 36.2678C43.9479 36.8935 43.6882 37.4424 43.2396 37.9147C42.791 38.3633 42.2539 38.6407 41.6282 38.747C41.0025 38.8532 40.3709 38.8473 39.7334 38.7292C39.5445 38.682 39.3674 38.6407 39.2021 38.6053C39.0368 38.5699 38.8952 38.6112 38.7771 38.7292C38.6354 38.8709 38.5823 39.0421 38.6177 39.2428C38.6532 39.4435 38.6945 39.6383 38.7417 39.8272C38.8361 40.4647 38.8479 41.0963 38.7771 41.722C38.7063 42.3477 38.4466 42.8966 37.9979 43.3688C37.5493 43.8411 37.0063 44.1244 36.3688 44.2188C35.7313 44.3133 35.0938 44.3015 34.4563 44.1834C34.2674 44.1362 34.0903 44.0949 33.925 44.0595C33.7598 44.024 33.6181 44.0654 33.5 44.1834C33.3584 44.3251 33.3111 44.4963 33.3584 44.697C33.4056 44.8976 33.4528 45.0924 33.5 45.2813C33.5945 45.9188 33.6004 46.5504 33.5177 47.1761C33.4351 47.8018 33.1695 48.3508 32.7209 48.823C32.2723 49.2952 31.7351 49.5786 31.1094 49.673C30.4837 49.7674 29.8521 49.7556 29.2146 49.6376C29.0257 49.5904 28.8486 49.549 28.6834 49.5136C28.5181 49.4782 28.3764 49.5195 28.2584 49.6376C28.1167 49.7792 27.9573 49.8855 27.7802 49.9563C27.6032 50.0272 27.4202 50.0626 27.2313 50.0626ZM31.4813 35.8959C29.5216 35.8959 27.8511 35.2053 26.4698 33.824C25.0886 32.4428 24.3979 30.7723 24.3979 28.8126C24.3979 26.8292 25.0886 25.1529 26.4698 23.7834C27.8511 22.414 29.5216 21.7292 31.4813 21.7292C33.4646 21.7292 35.141 22.414 36.5104 23.7834C37.8799 25.1529 38.5646 26.8292 38.5646 28.8126C38.5646 30.7723 37.8799 32.4428 36.5104 33.824C35.141 35.2053 33.4646 35.8959 31.4813 35.8959ZM45.6479 52.8959C44.8688 52.8959 44.2018 52.6185 43.6469 52.0636C43.092 51.5088 42.8146 50.8417 42.8146 50.0626V42.9792C42.8146 42.2001 43.092 41.5331 43.6469 40.9782C44.2018 40.4233 44.8688 40.1459 45.6479 40.1459H52.7313C53.5104 40.1459 54.1775 40.4233 54.7323 40.9782C55.2872 41.5331 55.5646 42.2001 55.5646 42.9792V50.0626C55.5646 50.8417 55.2872 51.5088 54.7323 52.0636C54.1775 52.6185 53.5104 52.8959 52.7313 52.8959H45.6479Z" fill="#F7864E"/>
</g>
</svg>
