<svg width="81" height="74" viewBox="0 0 81 74" fill="none" xmlns="http://www.w3.org/2000/svg">
<rect x="0.5" width="80" height="74" rx="8" fill="#5ABB29" fill-opacity="0.1"/>
<mask id="mask0_380_649" style="mask-type:alpha" maskUnits="userSpaceOnUse" x="23" y="19" width="35" height="35">
<rect x="23.5" y="19.5" width="34" height="34" fill="#D9D9D9"/>
</mask>
<g mask="url(#mask0_380_649)">
<path d="M40.4998 50.6666C39.8859 50.6666 39.3311 50.519 38.8353 50.2239C38.3394 49.9287 37.9498 49.5333 37.6665 49.0374C36.8873 49.0374 36.2203 48.76 35.6655 48.2051C35.1106 47.6503 34.8332 46.9833 34.8332 46.2041V41.1749C33.4401 40.2541 32.3245 39.0381 31.4863 37.527C30.6481 36.0159 30.229 34.3749 30.229 32.6041C30.229 29.7471 31.2266 27.3211 33.2217 25.326C35.2169 23.3308 37.6429 22.3333 40.4998 22.3333C43.3568 22.3333 45.7828 23.3308 47.778 25.326C49.7731 27.3211 50.7707 29.7471 50.7707 32.6041C50.7707 34.4221 50.3516 36.0749 49.5134 37.5624C48.6752 39.0499 47.5596 40.2541 46.1665 41.1749V46.2041C46.1665 46.9833 45.8891 47.6503 45.3342 48.2051C44.7794 48.76 44.1123 49.0374 43.3332 49.0374C43.0498 49.5333 42.6603 49.9287 42.1644 50.2239C41.6686 50.519 41.1137 50.6666 40.4998 50.6666ZM37.6665 46.2041H43.3332V44.9291H37.6665V46.2041ZM37.6665 43.5124H43.3332V42.1666H37.6665V43.5124ZM41.5623 39.3333V35.5083L43.9353 33.1353C44.1478 32.9228 44.254 32.6749 44.254 32.3916C44.254 32.1083 44.1478 31.8603 43.9353 31.6478C43.7228 31.4353 43.4748 31.3291 43.1915 31.3291C42.9082 31.3291 42.6603 31.4353 42.4478 31.6478L40.4998 33.5958L38.5519 31.6478C38.3394 31.4353 38.0915 31.3291 37.8082 31.3291C37.5248 31.3291 37.2769 31.4353 37.0644 31.6478C36.8519 31.8603 36.7457 32.1083 36.7457 32.3916C36.7457 32.6749 36.8519 32.9228 37.0644 33.1353L39.4373 35.5083V39.3333H41.5623Z" fill="#5ABB29"/>
</g>
</svg>
