<svg width="80" height="74" viewBox="0 0 80 74" fill="none" xmlns="http://www.w3.org/2000/svg">
<rect width="80" height="74" rx="8" fill="#292DC2" fill-opacity="0.1"/>
<mask id="mask0_380_617" style="mask-type:alpha" maskUnits="userSpaceOnUse" x="23" y="20" width="35" height="35">
<rect x="23.2168" y="20.0286" width="34" height="34" fill="#D9D9D9"/>
</mask>
<g mask="url(#mask0_380_617)">
<path d="M30.3001 49.7786C29.521 49.7786 28.8539 49.5012 28.2991 48.9464C27.7442 48.3915 27.4668 47.7245 27.4668 46.9453V27.112C27.4668 26.3328 27.7442 25.6658 28.2991 25.1109C28.8539 24.5561 29.521 24.2786 30.3001 24.2786H36.2501C36.5571 23.4286 37.0706 22.7439 37.7908 22.2245C38.5109 21.705 39.3196 21.4453 40.2168 21.4453C41.114 21.4453 41.9227 21.705 42.6428 22.2245C43.363 22.7439 43.8765 23.4286 44.1835 24.2786H50.1335C50.9126 24.2786 51.5796 24.5561 52.1345 25.1109C52.6894 25.6658 52.9668 26.3328 52.9668 27.112V46.9453C52.9668 47.7245 52.6894 48.3915 52.1345 48.9464C51.5796 49.5012 50.9126 49.7786 50.1335 49.7786H30.3001ZM34.5501 44.112H41.6335C42.0349 44.112 42.3713 43.9762 42.6428 43.7047C42.9144 43.4332 43.0501 43.0967 43.0501 42.6953C43.0501 42.2939 42.9144 41.9575 42.6428 41.6859C42.3713 41.4144 42.0349 41.2786 41.6335 41.2786H34.5501C34.1487 41.2786 33.8123 41.4144 33.5408 41.6859C33.2692 41.9575 33.1335 42.2939 33.1335 42.6953C33.1335 43.0967 33.2692 43.4332 33.5408 43.7047C33.8123 43.9762 34.1487 44.112 34.5501 44.112ZM34.5501 38.4453H45.8835C46.2849 38.4453 46.6213 38.3096 46.8928 38.038C47.1644 37.7665 47.3001 37.43 47.3001 37.0286C47.3001 36.6273 47.1644 36.2908 46.8928 36.0193C46.6213 35.7477 46.2849 35.612 45.8835 35.612H34.5501C34.1487 35.612 33.8123 35.7477 33.5408 36.0193C33.2692 36.2908 33.1335 36.6273 33.1335 37.0286C33.1335 37.43 33.2692 37.7665 33.5408 38.038C33.8123 38.3096 34.1487 38.4453 34.5501 38.4453ZM34.5501 32.7786H45.8835C46.2849 32.7786 46.6213 32.6429 46.8928 32.3714C47.1644 32.0998 47.3001 31.7634 47.3001 31.362C47.3001 30.9606 47.1644 30.6241 46.8928 30.3526C46.6213 30.0811 46.2849 29.9453 45.8835 29.9453H34.5501C34.1487 29.9453 33.8123 30.0811 33.5408 30.3526C33.2692 30.6241 33.1335 30.9606 33.1335 31.362C33.1335 31.7634 33.2692 32.0998 33.5408 32.3714C33.8123 32.6429 34.1487 32.7786 34.5501 32.7786ZM40.2168 26.0495C40.5237 26.0495 40.7776 25.9491 40.9783 25.7484C41.1789 25.5477 41.2793 25.2939 41.2793 24.987C41.2793 24.68 41.1789 24.4262 40.9783 24.2255C40.7776 24.0248 40.5237 23.9245 40.2168 23.9245C39.9099 23.9245 39.656 24.0248 39.4553 24.2255C39.2546 24.4262 39.1543 24.68 39.1543 24.987C39.1543 25.2939 39.2546 25.5477 39.4553 25.7484C39.656 25.9491 39.9099 26.0495 40.2168 26.0495Z" fill="#292DC2"/>
</g>
</svg>
