<svg width="80" height="74" viewBox="0 0 80 74" fill="none" xmlns="http://www.w3.org/2000/svg">
<rect width="80" height="74" rx="8" fill="#F7864E" fill-opacity="0.1"/>
<mask id="mask0_380_291" style="mask-type:alpha" maskUnits="userSpaceOnUse" x="22" y="20" width="35" height="35">
<rect x="22.9814" y="20.3125" width="34" height="34" fill="#D9D9D9"/>
</mask>
<g mask="url(#mask0_380_291)">
<path d="M27.2318 50.0626C27.0429 50.0626 26.8599 50.0213 26.6828 49.9386C26.5057 49.856 26.3582 49.7556 26.2401 49.6376C25.9568 49.3779 25.8151 49.0532 25.8151 48.6636C25.8151 48.274 25.945 47.9376 26.2047 47.6542C26.6533 47.182 27.1905 46.8987 27.8161 46.8042C28.4418 46.7098 29.0734 46.7216 29.7109 46.8397C29.8998 46.8869 30.0769 46.9341 30.2422 46.9813C30.4075 47.0286 30.5491 46.9931 30.6672 46.8751C30.8089 46.7334 30.862 46.5563 30.8266 46.3438C30.7911 46.1313 30.7498 45.9306 30.7026 45.7417C30.6082 45.1042 30.5964 44.4727 30.6672 43.847C30.738 43.2213 30.9977 42.6723 31.4464 42.2001C31.895 41.7279 32.4321 41.4445 33.0578 41.3501C33.6835 41.2556 34.3151 41.2674 34.9526 41.3855C35.1415 41.4327 35.3245 41.4799 35.5016 41.5272C35.6786 41.5744 35.8262 41.539 35.9443 41.4209C36.0859 41.2792 36.1332 41.1022 36.0859 40.8897C36.0387 40.6772 35.9915 40.4765 35.9443 40.2876C35.8498 39.6501 35.838 39.0185 35.9089 38.3928C35.9797 37.7671 36.2394 37.2181 36.688 36.7459C37.1366 36.2737 37.6738 35.9904 38.2995 35.8959C38.9252 35.8015 39.5568 35.8133 40.1943 35.9313C40.3832 35.9786 40.5661 36.0258 40.7432 36.073C40.9203 36.1202 41.0679 36.0848 41.1859 35.9667C41.3276 35.8251 41.3748 35.648 41.3276 35.4355C41.2804 35.223 41.2332 35.0223 41.1859 34.8334C41.0915 34.1959 41.0856 33.5643 41.1682 32.9386C41.2509 32.3129 41.5165 31.764 41.9651 31.2917C42.4137 30.8195 42.9509 30.5362 43.5766 30.4417C44.2023 30.3473 44.8339 30.3591 45.4714 30.4772C45.6602 30.5244 45.8432 30.5716 46.0203 30.6188C46.1974 30.6661 46.345 30.6306 46.463 30.5126C46.6047 30.3709 46.6519 30.1938 46.6047 29.9813C46.5575 29.7688 46.5102 29.5681 46.463 29.3792C46.3686 28.7417 46.3627 28.1102 46.4453 27.4845C46.528 26.8588 46.7936 26.3098 47.2422 25.8376C47.6908 25.3654 48.228 25.082 48.8536 24.9876C49.4793 24.8931 50.1109 24.9049 50.7484 25.023C50.9373 25.0702 51.1203 25.1115 51.2974 25.147C51.4745 25.1824 51.622 25.1411 51.7401 25.023C51.9998 24.7397 52.3245 24.598 52.7141 24.598C53.1036 24.598 53.4401 24.7279 53.7234 24.9876C54.0068 25.2473 54.1484 25.572 54.1484 25.9615C54.1484 26.3511 54.0186 26.6876 53.7589 26.9709C53.3102 27.4431 52.7731 27.7324 52.1474 27.8386C51.5217 27.9449 50.8901 27.939 50.2526 27.8209C50.0637 27.7737 49.8807 27.7265 49.7036 27.6792C49.5266 27.632 49.379 27.6674 49.2609 27.7855C49.1193 27.9272 49.072 28.1042 49.1193 28.3167C49.1665 28.5292 49.2137 28.7299 49.2609 28.9188C49.3554 29.5563 49.3613 30.1879 49.2786 30.8136C49.196 31.4393 48.9304 31.9883 48.4818 32.4605C48.0332 32.9327 47.496 33.2161 46.8703 33.3105C46.2446 33.4049 45.613 33.3931 44.9755 33.2751C44.7866 33.2279 44.6095 33.1806 44.4443 33.1334C44.279 33.0862 44.1373 33.1216 44.0193 33.2397C43.8776 33.3813 43.8245 33.5584 43.8599 33.7709C43.8953 33.9834 43.9366 34.1841 43.9839 34.373C44.0783 35.0105 44.0901 35.6421 44.0193 36.2678C43.9484 36.8935 43.6887 37.4424 43.2401 37.9147C42.7915 38.3633 42.2543 38.6407 41.6286 38.747C41.003 38.8532 40.3714 38.8473 39.7339 38.7292C39.545 38.682 39.3679 38.6407 39.2026 38.6053C39.0373 38.5699 38.8957 38.6112 38.7776 38.7292C38.6359 38.8709 38.5828 39.0421 38.6182 39.2428C38.6536 39.4435 38.695 39.6383 38.7422 39.8272C38.8366 40.4647 38.8484 41.0963 38.7776 41.722C38.7068 42.3477 38.447 42.8966 37.9984 43.3688C37.5498 43.8411 37.0068 44.1244 36.3693 44.2188C35.7318 44.3133 35.0943 44.3015 34.4568 44.1834C34.2679 44.1362 34.0908 44.0949 33.9255 44.0595C33.7602 44.024 33.6186 44.0654 33.5005 44.1834C33.3589 44.3251 33.3116 44.4963 33.3589 44.697C33.4061 44.8976 33.4533 45.0924 33.5005 45.2813C33.595 45.9188 33.6009 46.5504 33.5182 47.1761C33.4356 47.8018 33.17 48.3508 32.7214 48.823C32.2727 49.2952 31.7356 49.5786 31.1099 49.673C30.4842 49.7674 29.8526 49.7556 29.2151 49.6376C29.0262 49.5904 28.8491 49.549 28.6839 49.5136C28.5186 49.4782 28.3769 49.5195 28.2589 49.6376C28.1172 49.7792 27.9578 49.8855 27.7807 49.9563C27.6036 50.0272 27.4207 50.0626 27.2318 50.0626ZM31.4818 35.8959C29.522 35.8959 27.8516 35.2053 26.4703 33.824C25.0891 32.4428 24.3984 30.7723 24.3984 28.8126C24.3984 26.8292 25.0891 25.1529 26.4703 23.7834C27.8516 22.414 29.522 21.7292 31.4818 21.7292C33.4651 21.7292 35.1415 22.414 36.5109 23.7834C37.8804 25.1529 38.5651 26.8292 38.5651 28.8126C38.5651 30.7723 37.8804 32.4428 36.5109 33.824C35.1415 35.2053 33.4651 35.8959 31.4818 35.8959ZM45.6484 52.8959C44.8693 52.8959 44.2023 52.6185 43.6474 52.0636C43.0925 51.5088 42.8151 50.8417 42.8151 50.0626V42.9792C42.8151 42.2001 43.0925 41.5331 43.6474 40.9782C44.2023 40.4233 44.8693 40.1459 45.6484 40.1459H52.7318C53.5109 40.1459 54.178 40.4233 54.7328 40.9782C55.2877 41.5331 55.5651 42.2001 55.5651 42.9792V50.0626C55.5651 50.8417 55.2877 51.5088 54.7328 52.0636C54.178 52.6185 53.5109 52.8959 52.7318 52.8959H45.6484Z" fill="#F7864E"/>
</g>
</svg>
