<svg width="80" height="74" viewBox="0 0 80 74" fill="none" xmlns="http://www.w3.org/2000/svg">
<rect width="80" height="74" rx="8" fill="#35C3EC" fill-opacity="0.1"/>
<path d="M40.1693 30.5C37.9278 30.5 35.7366 31.1647 33.8728 32.41C32.0091 33.6553 30.5564 35.4254 29.6986 37.4963C28.8408 39.5672 28.6164 41.8459 29.0537 44.0444C29.491 46.2428 30.5704 48.2622 32.1554 49.8472C33.7404 51.4322 35.7598 52.5116 37.9583 52.9489C40.1567 53.3862 42.4355 53.1618 44.5064 52.304C46.5773 51.4462 48.3473 49.9936 49.5926 48.1298C50.8379 46.266 51.5026 44.0749 51.5026 41.8333C51.5026 41.0509 50.8683 40.4167 50.0859 40.4167H43.0026C42.2202 40.4167 41.5859 39.7824 41.5859 39V31.9167C41.5859 31.1343 40.9517 30.5 40.1693 30.5Z" fill="#35C3EC"/>
<path d="M45.8307 24.834C45.455 24.834 45.0947 24.9832 44.829 25.2489C44.5633 25.5146 44.4141 25.8749 44.4141 26.2507V36.1673C44.4141 36.543 44.5633 36.9034 44.829 37.1691C45.0947 37.4347 45.455 37.584 45.8307 37.584L55.7474 37.584C56.1231 37.584 56.4835 37.4347 56.7491 37.169C57.0148 36.9034 57.1641 36.543 57.1641 36.1673C57.1641 33.1615 55.97 30.2789 53.8446 28.1534C51.7192 26.028 48.8365 24.834 45.8307 24.834Z" fill="#35C3EC"/>
</svg>
