<svg width="81" height="74" viewBox="0 0 81 74" fill="none" xmlns="http://www.w3.org/2000/svg">
<rect x="0.5" width="80" height="74" rx="8" fill="#5ABB29" fill-opacity="0.1"/>
<mask id="mask0_380_315" style="mask-type:alpha" maskUnits="userSpaceOnUse" x="23" y="19" width="35" height="35">
<rect x="23.5" y="19.5" width="34" height="34" fill="#D9D9D9"/>
</mask>
<g mask="url(#mask0_380_315)">
<path d="M40.5003 50.6666C39.8864 50.6666 39.3316 50.519 38.8357 50.2239C38.3399 49.9287 37.9503 49.5333 37.667 49.0374C36.8878 49.0374 36.2208 48.76 35.666 48.2051C35.1111 47.6503 34.8337 46.9833 34.8337 46.2041V41.1749C33.4406 40.2541 32.325 39.0381 31.4868 37.527C30.6486 36.0159 30.2295 34.3749 30.2295 32.6041C30.2295 29.7471 31.2271 27.3211 33.2222 25.326C35.2173 23.3308 37.6434 22.3333 40.5003 22.3333C43.3573 22.3333 45.7833 23.3308 47.7785 25.326C49.7736 27.3211 50.7712 29.7471 50.7712 32.6041C50.7712 34.4221 50.3521 36.0749 49.5139 37.5624C48.6757 39.0499 47.56 40.2541 46.167 41.1749V46.2041C46.167 46.9833 45.8896 47.6503 45.3347 48.2051C44.7798 48.76 44.1128 49.0374 43.3337 49.0374C43.0503 49.5333 42.6607 49.9287 42.1649 50.2239C41.6691 50.519 41.1142 50.6666 40.5003 50.6666ZM37.667 46.2041H43.3337V44.9291H37.667V46.2041ZM37.667 43.5124H43.3337V42.1666H37.667V43.5124ZM41.5628 39.3333V35.5083L43.9357 33.1353C44.1482 32.9228 44.2545 32.6749 44.2545 32.3916C44.2545 32.1083 44.1482 31.8603 43.9357 31.6478C43.7232 31.4353 43.4753 31.3291 43.192 31.3291C42.9087 31.3291 42.6607 31.4353 42.4482 31.6478L40.5003 33.5958L38.5524 31.6478C38.3399 31.4353 38.092 31.3291 37.8087 31.3291C37.5253 31.3291 37.2774 31.4353 37.0649 31.6478C36.8524 31.8603 36.7462 32.1083 36.7462 32.3916C36.7462 32.6749 36.8524 32.9228 37.0649 33.1353L39.4378 35.5083V39.3333H41.5628Z" fill="#5ABB29"/>
</g>
</svg>
